<svg enable-background="new 0 0 16 16" viewBox="0 0 16 16" xmlns="http://www.w3.org/2000/svg"><g fill="#e0e0e0"><path d="m16 7h-3v-3z"/><path d="m0 15h3v-3z"/><path d="m14 1h-10c-.6 0-1 .4-1 1v4c0 .5.4 1 1 1h10c.5 0 1-.4 1-1v-4c0-.6-.4-1-1-1zm-8 4c-.6 0-1-.4-1-1s.4-1 1-1 1 .4 1 1-.4 1-1 1zm3 0c-.6 0-1-.4-1-1s.4-1 1-1 1 .4 1 1-.4 1-1 1zm3 0c-.6 0-1-.4-1-1s.4-1 1-1 1 .4 1 1-.4 1-1 1z"/><path d="m12 9h-10c-.5 0-1 .4-1 1v4c0 .5.4 1 1 1h10c.5 0 1-.4 1-1v-4c0-.6-.4-1-1-1zm-8 4c-.6 0-1-.4-1-1s.4-1 1-1 1 .4 1 1-.4 1-1 1zm3 0c-.6 0-1-.4-1-1s.4-1 1-1 1 .4 1 1-.4 1-1 1zm3 0c-.6 0-1-.4-1-1s.4-1 1-1 1 .4 1 1-.4 1-1 1z"/></g></svg>